<?xml version="1.0" standalone="no"?><!DOCTYPE svg PUBLIC "-//W3C//DTD SVG 1.1//EN" "http://www.w3.org/Graphics/SVG/1.1/DTD/svg11.dtd"><svg t="1655027773201" class="icon" viewBox="0 0 1024 1024" version="1.1" xmlns="http://www.w3.org/2000/svg" p-id="2489" xmlns:xlink="http://www.w3.org/1999/xlink" width="200" height="200"><defs><style type="text/css"></style></defs><path d="M155.950617 309.62963h736.296297v152.888889H155.950617z" fill="#6ADDD6" p-id="2490"></path><path d="M207.012346 462.419753h634.074074v422.024691h-634.074074z" fill="#00C4B8" p-id="2491"></path><path d="M207.012346 462.419753h634.074074v58.666667h-634.074074z" fill="#00B2A7" p-id="2492"></path><path d="M444.54321 309.62963h159.111111v574.91358H444.54321z" fill="#DC4E45" p-id="2493"></path><path d="M489.975309 309.62963h68.246913v574.91358h-68.246913z" fill="#FF6B5B" p-id="2494"></path><path d="M558.222222 309.62963L393.777778 145.185185 281.283951 257.679012l51.950617 51.950618h224.987654z" fill="#DC4E45" p-id="2495"></path><path d="M493.925926 309.62963l-132.246914-132.345679-48.296296 48.296296 84.049383 84.049383h96.493827z" fill="#FF6B5B" p-id="2496"></path><path d="M489.975309 309.62963L654.320988 145.185185l112.493827 112.493827-51.851852 51.950618H489.975309z" fill="#DC4E45" p-id="2497"></path><path d="M554.17284 309.62963l132.246913-132.345679 48.296296 48.296296-84.049382 84.049383h-96.493827z" fill="#FF6B5B" p-id="2498"></path></svg>