<?xml version="1.0" standalone="no"?><!DOCTYPE svg PUBLIC "-//W3C//DTD SVG 1.1//EN" "http://www.w3.org/Graphics/SVG/1.1/DTD/svg11.dtd"><svg t="1655027824334" class="icon" viewBox="0 0 1024 1024" version="1.1" xmlns="http://www.w3.org/2000/svg" p-id="2819" xmlns:xlink="http://www.w3.org/1999/xlink" width="200" height="200"><defs><style type="text/css"></style></defs><path d="M512.5 823.5c-111.9 0-202.9-91-202.9-202.9h64.1c0 76.5 62.3 138.8 138.8 138.8s138.8-62.3 138.8-138.8h64.1c0 111.8-91 202.9-202.9 202.9z" fill="#3E6493" p-id="2820"></path><path d="M939 652.6c12 0 22-10 21.5-22-11.5-237.5-207.6-426.5-448-426.5S76 393.1 64.5 630.6c-0.6 12 9.4 22 21.5 22h853z" fill="#DD4238" p-id="2821"></path><path d="M525.6 278.6h-26.2c-10.5 0-19-8.5-19-19V118.4c0-17.7 14.3-32 32-32s32 14.3 32 32v141.2c0.1 10.5-8.4 19-18.8 19z" fill="#DD4238" p-id="2822"></path><path d="M512.5 940.9c-17.7 0-32-14.3-32-32v-21.4c0-17.7 14.3-32 32-32s32 14.3 32 32v21.4c0 17.7-14.3 32-32 32zM268.7 843c-12.5-12.5-12.5-32.8 0-45.3l15.1-15.1c12.5-12.5 32.8-12.5 45.3 0s12.5 32.8 0 45.3L314 843c-12.5 12.5-32.8 12.5-45.3 0zM695.9 782.6c-12.5 12.5-12.5 32.8 0 45.3L711 843c12.5 12.5 32.8 12.5 45.3 0s12.5-32.8 0-45.3l-15.1-15.1c-12.5-12.5-32.8-12.5-45.3 0z" fill="#3E6493" p-id="2823"></path></svg>